<mxfile host="app.diagrams.net" modified="2023-02-20T17:52:59.676Z" agent="5.0 (Windows NT 10.0; Win64; x64) AppleWebKit/537.36 (KHTML, like Gecko) Chrome/109.0.0.0 Safari/537.36" etag="RCkw8EM0QoKXciILwEXO" version="20.8.21" type="github">
  <diagram name="Page-1" id="TYaHU2nMzx_FWk0u4R-4">
    <mxGraphModel dx="794" dy="1530" grid="1" gridSize="10" guides="1" tooltips="1" connect="1" arrows="1" fold="1" page="1" pageScale="1" pageWidth="850" pageHeight="1100" math="0" shadow="0">
      <root>
        <mxCell id="0" />
        <mxCell id="1" parent="0" />
        <mxCell id="CgonryQC6zT0e2CHzudl-1" value="Instance template" style="rounded=0;whiteSpace=wrap;html=1;fillColor=#ffe6cc;strokeColor=#d79b00;" vertex="1" parent="1">
          <mxGeometry x="20" y="-140" width="350" height="300" as="geometry" />
        </mxCell>
        <mxCell id="CgonryQC6zT0e2CHzudl-3" value="MANAGED GROUP" style="rounded=0;whiteSpace=wrap;html=1;fillColor=#f8cecc;strokeColor=#b85450;" vertex="1" parent="1">
          <mxGeometry x="90" y="230" width="190" height="110" as="geometry" />
        </mxCell>
        <mxCell id="CgonryQC6zT0e2CHzudl-4" value="LOAD BALANCER" style="rounded=0;whiteSpace=wrap;html=1;fillColor=#dae8fc;strokeColor=#6c8ebf;" vertex="1" parent="1">
          <mxGeometry x="260" y="190" width="120" height="60" as="geometry" />
        </mxCell>
        <mxCell id="CgonryQC6zT0e2CHzudl-5" value="HEALTH CHECKS" style="rounded=0;whiteSpace=wrap;html=1;fillColor=#e1d5e7;strokeColor=#9673a6;" vertex="1" parent="1">
          <mxGeometry x="260" y="255" width="120" height="60" as="geometry" />
        </mxCell>
        <mxCell id="CgonryQC6zT0e2CHzudl-6" value="NETWORK" style="rounded=0;whiteSpace=wrap;html=1;fillColor=#cdeb8b;strokeColor=#36393d;" vertex="1" parent="1">
          <mxGeometry x="390" y="80" width="390" height="250" as="geometry" />
        </mxCell>
        <mxCell id="CgonryQC6zT0e2CHzudl-7" value="SUBNET 1" style="rounded=0;whiteSpace=wrap;html=1;fillColor=#60a917;fontColor=#ffffff;strokeColor=#2D7600;" vertex="1" parent="1">
          <mxGeometry x="425" y="120" width="120" height="60" as="geometry" />
        </mxCell>
        <mxCell id="CgonryQC6zT0e2CHzudl-8" value="SUBNET 2" style="rounded=0;whiteSpace=wrap;html=1;fillColor=#fa6800;fontColor=#000000;strokeColor=#C73500;" vertex="1" parent="1">
          <mxGeometry x="630" y="120" width="120" height="60" as="geometry" />
        </mxCell>
        <mxCell id="CgonryQC6zT0e2CHzudl-9" value="DISK" style="rounded=0;whiteSpace=wrap;html=1;" vertex="1" parent="1">
          <mxGeometry x="60" y="-120" width="120" height="60" as="geometry" />
        </mxCell>
        <mxCell id="CgonryQC6zT0e2CHzudl-10" value="LINUX OR WINDOWS" style="rounded=0;whiteSpace=wrap;html=1;" vertex="1" parent="1">
          <mxGeometry x="230" y="-120" width="120" height="60" as="geometry" />
        </mxCell>
      </root>
    </mxGraphModel>
  </diagram>
</mxfile>
